<?xml version="1.0" encoding="iso-8859-1"?>
<!-- Generator: Adobe Illustrator 19.0.0, SVG Export Plug-In . SVG Version: 6.00 Build 0)  -->
<svg version="1.1" id="Layer_1" xmlns="http://www.w3.org/2000/svg" xmlns:xlink="http://www.w3.org/1999/xlink" x="0px" y="0px"
	 viewBox="0 0 481.882 481.882" style="enable-background:new 0 0 481.882 481.882;" xml:space="preserve">
<circle style="fill:#E56353;" cx="240.941" cy="240.941" r="240.941"/>
<path style="fill:#D15241;" d="M193.355,134.325h-54.814c-4.216,0-7.228,3.012-7.228,7.228V358.4c0,4.216,3.012,7.228,7.228,7.228
	h54.814c4.216,0,7.228-3.012,7.228-7.228V141.553C200.584,137.336,197.572,134.325,193.355,134.325z"/>
<path style="fill:#FFFFFF;" d="M193.355,116.254h-54.814c-4.216,0-7.228,3.012-7.228,7.228v216.847c0,4.216,3.012,7.228,7.228,7.228
	h54.814c4.216,0,7.228-3.012,7.228-7.228V123.482C200.584,119.266,197.572,116.254,193.355,116.254z"/>
<path style="fill:#D15241;" d="M343.341,134.325h-54.814c-4.216,0-7.228,3.012-7.228,7.228V358.4c0,4.216,3.012,7.228,7.228,7.228
	h54.814c4.216,0,7.228-3.012,7.228-7.228V141.553C350.569,137.336,347.558,134.325,343.341,134.325z"/>
<path style="fill:#FFFFFF;" d="M343.341,116.254h-54.814c-4.216,0-7.228,3.012-7.228,7.228v216.847c0,4.216,3.012,7.228,7.228,7.228
	h54.814c4.216,0,7.228-3.012,7.228-7.228V123.482C350.569,119.266,347.558,116.254,343.341,116.254z"/>
<g>
</g>
<g>
</g>
<g>
</g>
<g>
</g>
<g>
</g>
<g>
</g>
<g>
</g>
<g>
</g>
<g>
</g>
<g>
</g>
<g>
</g>
<g>
</g>
<g>
</g>
<g>
</g>
<g>
</g>
</svg>
